<svg width="250" height="72" viewBox="0 0 250 72" fill="none" xmlns="http://www.w3.org/2000/svg">
<path d="M106.95 35.5237H102.195C102.059 34.7066 101.809 33.9829 101.445 33.3523C101.08 32.7129 100.627 32.1712 100.084 31.7271C99.5416 31.2831 98.9228 30.9501 98.2278 30.7281C97.5412 30.4972 96.7995 30.3817 96.0027 30.3817C94.5871 30.3817 93.3326 30.7547 92.2391 31.5007C91.1457 32.2378 90.2895 33.3212 89.6708 34.751C89.052 36.1719 88.7426 37.9081 88.7426 39.9596C88.7426 42.0466 89.052 43.8049 89.6708 45.2347C90.298 46.6556 91.1541 47.7302 92.2391 48.4584C93.3326 49.1778 94.5829 49.5374 95.99 49.5374C96.7698 49.5374 97.4988 49.4309 98.1769 49.2177C98.8635 48.9957 99.478 48.6716 100.021 48.2453C100.572 47.819 101.033 47.2951 101.406 46.6734C101.788 46.0518 102.051 45.3413 102.195 44.542L106.95 44.5687C106.772 45.8653 106.386 47.0819 105.793 48.2187C105.208 49.3554 104.441 50.3589 103.492 51.2292C102.542 52.0906 101.432 52.7656 100.16 53.254C98.8889 53.7336 97.4776 53.9734 95.9264 53.9734C93.6378 53.9734 91.5949 53.4183 89.7979 52.3082C88.0009 51.1981 86.5853 49.5952 85.5512 47.4993C84.5171 45.4035 84 42.8902 84 39.9596C84 37.0201 84.5213 34.5068 85.5639 32.4198C86.6065 30.324 88.0263 28.721 89.8233 27.6109C91.6204 26.5008 93.6547 25.9458 95.9264 25.9458C97.3759 25.9458 98.7236 26.1589 99.9697 26.5852C101.216 27.0115 102.326 27.6376 103.301 28.4635C104.276 29.2805 105.077 30.284 105.704 31.474C106.34 32.6552 106.755 34.0051 106.95 35.5237Z" fill="black"/>
<path d="M116.385 26.3188V53.6004H111.783V26.3188H116.385Z" fill="black"/>
<path d="M130.353 54C128.446 54 126.793 53.5604 125.395 52.6812C123.996 51.802 122.911 50.572 122.14 48.9913C121.377 47.4105 120.995 45.5633 120.995 43.4497C120.995 41.3361 121.377 39.4845 122.14 37.8948C122.911 36.3052 123.996 35.0707 125.395 34.1915C126.793 33.3124 128.446 32.8728 130.353 32.8728C132.26 32.8728 133.913 33.3124 135.312 34.1915C136.711 35.0707 137.791 36.3052 138.554 37.8948C139.326 39.4845 139.711 41.3361 139.711 43.4497C139.711 45.5633 139.326 47.4105 138.554 48.9913C137.791 50.572 136.711 51.802 135.312 52.6812C133.913 53.5604 132.26 54 130.353 54ZM130.379 50.1369C131.413 50.1369 132.277 49.8394 132.972 49.2444C133.668 48.6405 134.185 47.8323 134.524 46.8199C134.871 45.8075 135.045 44.6797 135.045 43.4364C135.045 42.1842 134.871 41.0519 134.524 40.0395C134.185 39.0182 133.668 38.2056 132.972 37.6017C132.277 36.9979 131.413 36.6959 130.379 36.6959C129.319 36.6959 128.438 36.9979 127.734 37.6017C127.039 38.2056 126.518 39.0182 126.17 40.0395C125.831 41.0519 125.662 42.1842 125.662 43.4364C125.662 44.6797 125.831 45.8075 126.17 46.8199C126.518 47.8323 127.039 48.6405 127.734 49.2444C128.438 49.8394 129.319 50.1369 130.379 50.1369Z" fill="black"/>
<path d="M156.782 44.9949V33.1392H161.384V53.6004H156.922V49.9637H156.718C156.277 51.1093 155.553 52.0462 154.544 52.7745C153.544 53.5027 152.31 53.8668 150.844 53.8668C149.564 53.8668 148.432 53.5693 147.449 52.9743C146.474 52.3704 145.711 51.4956 145.16 50.35C144.609 49.1955 144.334 47.8013 144.334 46.1672V33.1392H148.937V45.4212C148.937 46.7178 149.276 47.748 149.954 48.5117C150.632 49.2755 151.522 49.6573 152.624 49.6573C153.302 49.6573 153.959 49.4842 154.595 49.1378C155.231 48.7915 155.752 48.2764 156.159 47.5926C156.574 46.8999 156.782 46.034 156.782 44.9949Z" fill="black"/>
<path d="M174.081 53.96C172.547 53.96 171.174 53.5471 169.961 52.7212C168.749 51.8953 167.791 50.6964 167.088 49.1245C166.384 47.5526 166.033 45.6432 166.033 43.3964C166.033 41.123 166.389 39.2047 167.101 37.6417C167.821 36.0698 168.792 34.8842 170.012 34.085C171.233 33.2768 172.593 32.8728 174.094 32.8728C175.238 32.8728 176.179 33.077 176.916 33.4855C177.654 33.8852 178.239 34.3692 178.671 34.9375C179.103 35.497 179.438 36.0254 179.675 36.5227H179.866V26.3188H184.482V53.6004H179.955V50.3767H179.675C179.438 50.874 179.095 51.4024 178.646 51.9619C178.196 52.5125 177.603 52.9832 176.865 53.3739C176.128 53.7647 175.2 53.96 174.081 53.96ZM175.365 50.0037C176.34 50.0037 177.171 49.7284 177.857 49.1778C178.544 48.6183 179.065 47.8412 179.421 46.8466C179.777 45.8519 179.955 44.693 179.955 43.3698C179.955 42.0465 179.777 40.8965 179.421 39.9196C179.074 38.9427 178.557 38.1834 177.87 37.6417C177.192 37.1 176.357 36.8291 175.365 36.8291C174.339 36.8291 173.483 37.1089 172.797 37.6684C172.11 38.2278 171.593 39.0005 171.246 39.9862C170.898 40.972 170.724 42.0998 170.724 43.3698C170.724 44.6486 170.898 45.7898 171.246 46.7933C171.602 47.7879 172.123 48.5739 172.809 49.1511C173.505 49.7195 174.356 50.0037 175.365 50.0037Z" fill="black"/>
<path d="M190.306 26.3188H196.078L203.809 46.0873H204.114L207.979 36.203L211.845 26.3188H217.617V53.6004H213.091V34.8576H212.849L205.652 53.5204H202.27L195.074 34.8176H194.832V53.6004H190.306V26.3188Z" fill="#9969FF"/>
<path d="M223.266 53.6004V33.1392H227.869V53.6004H223.266ZM225.58 30.2352C224.852 30.2352 224.224 29.9821 223.699 29.4759C223.173 28.9608 222.91 28.3436 222.91 27.6243C222.91 26.896 223.173 26.2788 223.699 25.7726C224.224 25.2575 224.852 25 225.58 25C226.318 25 226.945 25.2575 227.462 25.7726C227.988 26.2788 228.251 26.896 228.251 27.6243C228.251 28.3436 227.988 28.9608 227.462 29.4759C226.945 29.9821 226.318 30.2352 225.58 30.2352Z" fill="#9969FF"/>
<path d="M237.082 33.1392L241.023 40.6922L245.029 33.1392H249.898L244.011 43.3698L250 53.6004H245.156L241.023 46.2338L236.929 53.6004H232.047L237.997 43.3698L232.199 33.1392H237.082Z" fill="#9969FF"/>
<path fill-rule="evenodd" clip-rule="evenodd" d="M28.0519 12.6955C32.8129 11.8223 37.7278 12.7921 41.8003 15.4083C45.2002 17.5925 47.8006 20.7877 49.2563 24.5143C50.9184 24.3495 52.5997 24.4222 54.249 24.7335C56.6871 25.1937 59.0002 26.1651 61.0359 27.5836C63.0716 29.0022 64.7838 30.8359 66.0598 32.9639C67.3357 35.0919 68.1466 37.466 68.4389 39.9299C68.7312 42.3938 68.4984 44.8918 67.7557 47.2592C67.0131 49.6267 65.7775 51.8101 64.1302 53.6656C62.4829 55.5211 60.4614 57.0067 58.1985 58.0247C55.9357 59.0426 53.483 59.5697 51.0018 59.5714H18L17.9932 59.5714C14.4408 59.562 11.014 58.2557 8.35677 55.8979C5.69953 53.5402 3.99471 50.2932 3.56261 46.7671C3.13052 43.241 4.00089 39.6785 6.0102 36.7489C7.60873 34.4182 9.84057 32.6157 12.421 31.5396C12.4025 27.4452 13.7035 23.4321 16.1611 20.1106C19.0401 16.2195 23.2909 13.5686 28.0519 12.6955ZM13.3587 36.7981C12.1296 37.4989 11.064 38.4729 10.2514 39.6578C8.95094 41.5538 8.38763 43.8595 8.66729 46.1416C8.94694 48.4237 10.0503 50.5251 11.7701 52.0511C13.489 53.5763 15.7054 54.4216 18.0034 54.4286H50.9983C52.7533 54.4274 54.4882 54.0545 56.0887 53.3345C57.6892 52.6145 59.1191 51.5637 60.2842 50.2513C61.4494 48.9388 62.3233 47.3945 62.8486 45.7199C63.3739 44.0454 63.5386 42.2786 63.3318 40.5358C63.1251 38.793 62.5516 37.1138 61.6491 35.6086C60.7465 34.1034 59.5355 32.8065 58.0956 31.8031C56.6557 30.7997 55.0196 30.1126 53.2951 29.7871C51.5826 29.4639 49.8215 29.5044 48.126 29.9059L44.1754 30.9812C42.805 31.3541 41.3918 30.5456 41.0189 29.1753C40.6459 27.805 41.4544 26.3918 42.8247 26.0188L44.1569 25.6562C43.0541 23.2475 41.2789 21.186 39.0206 19.7352C36.0463 17.8245 32.4568 17.1162 28.9797 17.754C25.5025 18.3917 22.398 20.3277 20.2953 23.1695C18.209 25.9893 17.2639 29.4917 17.6472 32.9764L17.6493 32.988C17.6607 33.0477 17.6788 33.1395 17.7037 33.2563C17.7536 33.4914 17.8291 33.8197 17.9293 34.1863C18.1471 34.9828 18.4181 35.7178 18.6796 36.1356C19.4332 37.3393 19.0682 38.926 17.8645 39.6796C16.6607 40.4331 15.074 40.0682 14.3204 38.8644C13.9156 38.2178 13.5999 37.4797 13.3587 36.7981Z" fill="#9969FF"/>
</svg>
